<?xml version="1.0" encoding="UTF-8" standalone="no"?>
<svg
   xmlns:dc="http://purl.org/dc/elements/1.1/"
   xmlns:cc="http://creativecommons.org/ns#"
   xmlns:rdf="http://www.w3.org/1999/02/22-rdf-syntax-ns#"
   xmlns:svg="http://www.w3.org/2000/svg"
   xmlns="http://www.w3.org/2000/svg"
   viewBox="0 0 602.68933 255.79201"
   height="255.79201"
   width="602.68933"
   xml:space="preserve"
   id="svg2"
   version="1.1"><metadata
     id="metadata8"><rdf:RDF><cc:Work
         rdf:about=""><dc:format>image/svg+xml</dc:format><dc:type
           rdf:resource="http://purl.org/dc/dcmitype/StillImage" /><dc:title></dc:title></cc:Work></rdf:RDF></metadata><defs
     id="defs6"><clipPath
       id="clipPath18"
       clipPathUnits="userSpaceOnUse"><path
         id="path16"
         d="M 0,191.844 H 452.017 V 0 H 0 Z" /></clipPath></defs><g
     transform="matrix(1.3333333,0,0,-1.3333333,0,255.792)"
     id="g10"><g
       id="g12"><g
         clip-path="url(#clipPath18)"
         id="g14"><g
           transform="translate(394.873,92.7442)"
           id="g20"><path
             id="path22"
             style="fill:#262626;fill-opacity:1;fill-rule:nonzero;stroke:none"
             d="m 0,0 c -6.468,-2.5 -4.075,-5.156 -1.594,-11.436 l 4.125,-11.343 -20.305,-18.48 c -0.624,-0.568 -0.888,-1.433 -0.675,-2.249 0.596,-2.282 1.734,-4.694 3.919,-7.017 1.489,-1.602 2.959,-1.648 4.406,0 l 16.03,16.779 8.999,-16.311 c 2.249,-1.75 4.218,-1.687 7.03,0.938 4.366,3.95 6.058,6.482 10.569,11.304 0.277,0.296 0.334,0.747 0.127,1.095 l -2.776,4.669 c -0.307,0.516 -1.029,0.599 -1.446,0.167 -4.028,-4.176 -7.169,-8.18 -10.832,-10.965 -0.443,-0.337 -1.092,-0.138 -1.296,0.38 l -5.22,13.222 c 8.252,8.213 16.412,15.703 24.303,21.115 1.105,0.96 1.061,2.689 -0.092,3.591 L 29.191,0.215 C 28.52,0.74 27.568,0.702 26.941,0.126 L 8.249,-17.061 6.429,-2.291 C 6.125,0.181 4.343,1.5 1.24,0.58 Z" /></g><g
           transform="translate(368.7823,84.3702)"
           id="g24"><path
             id="path26"
             style="fill:#262626;fill-opacity:1;fill-rule:nonzero;stroke:none"
             d="m 0,0 c -2.388,-15.224 -11.418,-23.785 -21.186,-33.609 -0.386,-0.389 -1.043,-0.026 -0.912,0.505 2.602,10.532 6.537,20.293 15.224,30.479 3.384,3.968 3.424,4.954 0,6.874 C -1.332,9.119 0.89,7.568 0,0 M 22.81,5.281 C 18.478,1.009 14.014,-2.726 9.405,-5.874 c 2.886,7.572 1.293,13.283 -5.343,16.498 -7.03,3.796 -9.233,2.605 -14.623,-2.906 -4.5,4.406 -6.515,1.406 -10.827,-4.734 -5.773,-9.772 -23.776,-47.188 2.776,-48.409 1.625,-0.075 3.213,0.609 4.315,1.805 6.277,6.807 11.286,13.626 15.219,20.029 7.037,9.397 14.535,17.361 22.638,23.435 z" /></g><g
           transform="translate(297.0406,55.436)"
           id="g28"><path
             id="path30"
             style="fill:#262626;fill-opacity:1;fill-rule:nonzero;stroke:none"
             d="m 0,0 c -5.605,5.852 -9.64,12.154 -10.643,19.327 -0.354,2.54 0.185,5.138 1.485,7.348 5.731,9.741 13.39,16.638 22.594,21.257 C 6.087,34.168 1.972,17.905 0,0 m 78.428,126.173 c -1.591,2.782 -4.708,6.458 -8.936,8.562 -1.335,-4.56 -3.374,-7.712 -5.374,-9.874 C 44.783,121.672 24.372,113.487 7.374,100.988 -3.956,91.815 -1.988,84.729 10.249,79.491 15.68,89.739 27.072,98.799 48.494,105.863 L 23.997,67.742 C 14.068,64.563 4.896,59.609 -3.69,53.284 -8.951,49.41 -12.713,43.805 -14.254,37.456 -19.184,17.154 -8.491,-0.042 5.68,-16.546 c 0.719,-0.837 2.088,-0.527 2.383,0.537 l 0.936,3.386 c 0.382,1.813 -0.105,3.476 -2.125,4.999 6.251,25.088 14.062,47.57 25.497,63.993 19.621,5.957 35.772,7.26 46.494,4.759 1.138,-0.266 1.569,-1.712 0.747,-2.542 -1.079,-1.088 -2.978,-2.416 -5.121,-4.092 6.172,-2.834 13.016,-1.848 13.249,7.249 0.294,7.726 -1.695,12.661 -7.874,14.123 -10.097,2.778 -21.931,1.761 -34.621,-1.125 8.129,13.542 17.758,25.692 29.235,36.127 0.896,0.815 2.042,1.329 3.244,1.476 41.231,5.049 69.422,2.055 72.009,-16.73 18.31,22.685 -12.737,39.593 -71.305,30.559" /></g><g
           transform="translate(194.0836,38.7504)"
           id="g32"><path
             id="path34"
             style="fill:#262626;fill-opacity:1;fill-rule:nonzero;stroke:none"
             d="m 0,0 c -15.117,7.385 -4.874,25.872 11.155,52.119 5.249,7.579 6.562,5.036 11.717,1.781 1.094,-0.864 1.969,-2.437 -0.843,-5.531 C 16.612,41.597 13.198,34.993 11.905,28.567 l 29.059,27.489 c 4.218,3.642 5.718,3.642 10.124,-0.656 4.031,-3.75 2.651,-5.569 -0.563,-8.437 -7.489,-7.83 -12.55,-16.877 -15.279,-27.09 L 63.555,48.651 C 52.775,31.496 38.808,17.436 32.996,0 18.313,3.728 17.049,15.323 27.747,33.934 14.659,23.418 6.789,13.052 0,0" /></g><g
           transform="translate(184.116,84.9326)"
           id="g36"><path
             id="path38"
             style="fill:#262626;fill-opacity:1;fill-rule:nonzero;stroke:none"
             d="M 0,0 C -3.263,-5.789 -7.359,-10.429 -12.186,-14.061 -9.003,-8.607 -5.005,-3.865 0,0 m -10.374,-31.746 c -13.286,-12.189 -14.62,-7.418 -7.436,9.436 5.999,0.039 12.898,4.887 21.06,16.498 1.514,2.314 2.256,4.407 2.222,6.278 -0.023,1.219 -0.525,2.387 -1.28,3.344 -2.493,3.16 -5.627,6.158 -9.129,9.063 -1.437,1 -2.789,0.811 -4.339,-0.419 -7.031,-5.548 -13.159,-12.204 -19.283,-21.078 -12.506,-20.168 -12.797,-32.035 -3.75,-37.558 6.312,-4.437 11.374,-2.993 17.561,3.374 8.295,8.253 15.573,15.713 22.435,22.935 l 8.499,14.374 z" /></g><g
           transform="translate(142.2457,84.9326)"
           id="g40"><path
             id="path42"
             style="fill:#262626;fill-opacity:1;fill-rule:nonzero;stroke:none"
             d="M 0,0 C -3.263,-5.789 -7.359,-10.429 -12.186,-14.061 -9.003,-8.607 -5.005,-3.865 0,0 m -10.374,-31.746 c -13.286,-12.189 -14.62,-7.418 -7.436,9.436 5.999,0.039 12.898,4.887 21.06,16.498 1.514,2.314 2.256,4.407 2.222,6.278 -0.023,1.219 -0.525,2.387 -1.28,3.344 -2.493,3.16 -5.627,6.158 -9.129,9.063 -1.437,1 -2.789,0.811 -4.339,-0.419 -7.031,-5.548 -13.159,-12.204 -19.283,-21.078 -12.506,-20.168 -12.797,-32.035 -3.75,-37.558 6.312,-4.437 11.374,-2.993 17.561,3.374 8.295,8.253 15.573,15.713 22.435,22.935 l 8.499,14.374 z" /></g><g
           transform="translate(65.9677,64.397)"
           id="g44"><path
             id="path46"
             style="fill:#262626;fill-opacity:1;fill-rule:nonzero;stroke:none"
             d="m 0,0 12.535,12.318 c -3.576,3.836 -3.188,8.386 0.844,13.592 l 8.155,10.405 c 1.698,1.941 3.757,2.673 6.468,0.656 1.494,-0.933 2.668,-1.667 3.75,-2.343 1.589,-1.288 1.682,-2.724 0,-4.5 -5.283,-5.951 -9.181,-11.953 -11.905,-17.998 2.785,-0.665 5.648,1.543 10.499,5.531 0.98,0.828 1.655,1.038 2.812,0.375 l 5.156,-3.656 c 0.854,-0.682 0.895,-1.578 0,-2.718 C 33.109,6.129 29.61,-0.169 27.909,-7.274 34.087,0.61 41.345,7.586 49.469,13.835 L 42.532,-0.056 C 33.954,-7.293 26.63,-18.739 19.636,-31.291 c -0.474,-0.85 -1.545,-1.162 -2.407,-0.708 -8.77,4.619 -10.631,12.072 -3.475,23.225 L 24.065,8.849 15.816,8.662 -6.18,-13.612 Z" /></g><g
           transform="translate(61.1418,102.8139)"
           id="g48"><path
             id="path50"
             style="fill:#262626;fill-opacity:1;fill-rule:nonzero;stroke:none"
             d="m 0,0 c -9.405,-27.014 -24.116,-42.629 -42.264,-50.858 -1.086,-0.493 -2.349,0.198 -2.558,1.371 -1.855,10.397 1.856,23.203 9.252,37.605 1.054,-3.158 2.622,-5.393 5.374,-5.499 -1.565,8.77 9.697,14.798 28.566,19.198 C -0.569,2.065 0.358,1.029 0,0 m 59.809,4.475 c 0.914,-0.273 1.734,0.685 1.268,1.519 -3.409,6.099 -9.627,9.885 -20.656,11.746 -25.56,3.202 -46.816,-0.252 -66.242,-9.999 6.981,11.385 13.789,22.667 21.247,32.996 9.739,14.746 22.14,26.98 38.746,35.246 C 32.633,70.329 29.27,65.077 25.048,59.61 15.174,48.111 7.569,43.592 -0.074,41.237 -0.83,36.85 0.774,32.923 5.55,29.613 c 6.749,-3.874 18.489,4.069 32.496,24.622 8.874,13.874 8.69,25.656 -1.124,30.747 0.375,2.875 -3,5.499 -8.499,3.125 C 18.813,83.374 9.659,76.973 0.801,69.484 -23.149,46.185 -40.936,19.666 -52.443,-10.132 c -8.664,-21.85 -11.071,-37.977 -6.249,-47.12 8.873,-20.247 24.185,-16.682 47.244,10.374 -13.31,-30.805 -23.666,-50.875 -34.207,-53.171 -0.922,-0.2 -1.074,-1.398 -0.236,-1.831 3.894,-2.014 7.896,-0.957 13.945,5.008 20.623,20.247 32.75,47.505 43.87,75.866 4.982,12.435 8.255,21.47 1.25,27.372 14.848,3.633 30.457,2.947 46.635,-1.891" /></g></g></g></g></svg>